<?xml version="1.0" standalone="no"?><!DOCTYPE svg PUBLIC "-//W3C//DTD SVG 1.1//EN" "http://www.w3.org/Graphics/SVG/1.1/DTD/svg11.dtd"><svg class="icon" width="128px" height="128.00px" viewBox="0 0 1024 1024" version="1.1" xmlns="http://www.w3.org/2000/svg"><path d="M512 421.38854217529297c45.88508605957031 0 83.19568634033203-37.31060028076172 83.19568634033203-83.19568634033203 0-45.88508605957031-37.31060028076172-83.19568634033203-83.19568634033203-83.19568634033203S428.80431365966797 292.3077697753906 428.80431365966797 338.19285583496094c0 45.88508605957031 37.31060028076172 83.19568634033203 83.19568634033203 83.19568634033203z m0-126.84059143066406c24.10125732421875 0 43.64490509033203 19.54364776611328 43.64490509033203 43.64490509033203s-19.54364776611328 43.64490509033203-43.64490509033203 43.64490509033203-43.64490509033203-19.54364776611328-43.64490509033203-43.64490509033203 19.54364776611328-43.64490509033203 43.64490509033203-43.64490509033203zM595.195686340332 686.5023727416992c0-45.88508605957031-37.31060028076172-83.19568634033203-83.19568634033203-83.19568634033203-45.88508605957031 0-83.19568634033203 37.31060028076172-83.19568634033203 83.19568634033203 0 45.88508605957031 37.31060028076172 83.19568634033203 83.19568634033203 83.19568634033203 45.88508605957031 0 83.19568634033203-37.31060028076172 83.19568634033203-83.19568634033203z m-126.84059143066406 0c0-24.10125732421875 19.54364776611328-43.64490509033203 43.64490509033203-43.64490509033203s43.64490509033203 19.54364776611328 43.64490509033203 43.64490509033203-19.54364776611328 43.64490509033203-43.64490509033203 43.64490509033203-43.64490509033203-19.54364776611328-43.64490509033203-43.64490509033203zM685.7298965454102 593.8052291870117c45.88508605957031 0 83.19568634033203-37.31060028076172 83.19568634033203-83.19568634033203 0-45.88508605957031-37.31060028076172-83.19568634033203-83.19568634033203-83.19568634033203-45.88508605957031 0-83.19568634033203 37.31060028076172-83.19568634033203 83.19568634033203 0.07724761962890625 45.88508605957031 37.387847900390625 83.19568634033203 83.19568634033203 83.19568634033203z m0-126.76334381103516c24.10125732421875 0 43.64490509033203 19.54364776611328 43.64490509033203 43.64490509033203s-19.54364776611328 43.64490509033203-43.64490509033203 43.64490509033203-43.64490509033203-19.54364776611328-43.64490509033203-43.64490509033203 19.620895385742188-43.64490509033203 43.64490509033203-43.64490509033203zM337.4976272583008 430.88999938964844c-45.88508605957031 0-83.19568634033203 37.31060028076172-83.19568634033203 83.19568634033203 0 45.88508605957031 37.31060028076172 83.19568634033203 83.19568634033203 83.19568634033203 45.88508605957031 0 83.19568634033203-37.31060028076172 83.19568634033203-83.19568634033203 0-45.88508605957031-37.31060028076172-83.19568634033203-83.19568634033203-83.19568634033203z m0 126.84059143066406c-24.10125732421875 0-43.64490509033203-19.54364776611328-43.64490509033203-43.64490509033203s19.54364776611328-43.64490509033203 43.64490509033203-43.64490509033203 43.64490509033203 19.54364776611328 43.64490509033203 43.64490509033203-19.620895385742188 43.64490509033203-43.64490509033203 43.64490509033203z" fill="#1296db" /><path d="M849.9583358764648 837.0579833984375H677.3099060058594c34.14344787597656-17.380714416503906 65.11974334716797-39.859771728515625 92.46540069580078-67.28267669677734 33.448219299316406-33.448219299316406 59.78965759277344-72.45826721191406 78.09734344482422-115.87142944335938 19.002914428710938-44.95811462402344 28.65886688232422-92.6971435546875 28.65886688232422-141.90387725830078 0-49.20673370361328-9.655952453613281-96.94576263427734-28.65886688232422-141.90387725830078-18.384933471679688-43.41316223144531-44.64912414550781-82.42321014404297-78.09734344482422-115.87142944335938s-72.45826721191406-59.78965759277344-115.87142944335938-78.09734344482422C608.9457626342773 157.04718780517578 561.2067337036133 147.3912353515625 512 147.3912353515625c-49.20673370361328 0-96.94576263427734 9.655952453613281-141.90387725830078 28.65886688232422-43.41316223144531 18.384933471679688-82.42321014404297 44.64912414550781-115.87142944335938 78.09734344482422s-59.78965759277344 72.45826721191406-78.09734344482422 115.87142944335938C157.04718780517578 415.05423736572266 147.3912353515625 462.7932662963867 147.3912353515625 512c0 49.20673370361328 9.655952453613281 96.94576263427734 28.65886688232422 141.90387725830078 18.384933471679688 43.41316223144531 44.64912414550781 82.42321014404297 78.09734344482422 115.87142944335938s72.45826721191406 59.78965759277344 115.87142944335938 78.09734344482422c44.95811462402344 19.002914428710938 92.6971435546875 28.65886688232422 141.90387725830078 28.65886688232422 1.85394287109375 0 3.7078857421875 0 5.639076232910156-0.07724761962890625 0.4634857177734375 0 0.8497238159179688 0.07724761962890625 1.3132095336914062 0.07724761962890625h331.0060501098633c10.891914367675781 0 19.775390625-8.883476257324219 19.775390625-19.775390625s-8.806228637695312-19.698143005371094-19.698143005371094-19.698143005371094zM282.111083984375 741.888916015625c-29.89482879638672-29.89482879638672-53.30085754394531-64.65625762939453-69.67735290527344-103.35731506347658-16.91722869873047-40.091514587402344-25.56896209716797-82.65495300292969-25.56896209716797-126.53160095214844 0-43.87664794921875 8.574485778808594-86.4400863647461 25.56896209716797-126.53160095214844 16.376495361328125-38.70105743408203 39.78252410888672-73.46248626708984 69.67735290527344-103.35731506347658 29.89482879638672-29.89482879638672 64.65625762939453-53.30085754394531 103.35731506347658-69.67735290527344 40.091514587402344-16.91722869873047 82.65495300292969-25.56896209716797 126.53160095214844-25.56896209716797s86.4400863647461 8.574485778808594 126.53160095214844 25.56896209716797c38.70105743408203 16.376495361328125 73.46248626708984 39.78252410888672 103.35731506347658 69.67735290527344 29.89482879638672 29.89482879638672 53.30085754394531 64.65625762939453 69.67735290527344 103.35731506347658 16.91722869873047 40.091514587402344 25.56896209716797 82.65495300292969 25.56896209716797 126.53160095214844 0 43.87664794921875-8.574485778808594 86.4400863647461-25.56896209716797 126.53160095214844-16.376495361328125 38.70105743408203-39.78252410888672 73.46248626708984-69.67735290527344 103.35731506347658-29.89482879638672 29.89482879638672-64.65625762939453 53.30085754394531-103.35731506347658 69.67735290527344-40.091514587402344 16.91722869873047-82.65495300292969 25.56896209716797-126.53160095214844 25.56896209716797-43.87664794921875 0-86.4400863647461-8.574485778808594-126.53160095214844-25.56896209716797-38.70105743408203-16.376495361328125-73.46248626708984-39.859771728515625-103.35731506347658-69.67735290527344z" fill="#1296db" /></svg>